{
    "asset" : {
        "generator" : "Khronos glTF Blender I/O v3.4.50",
        "version" : "2.0"
    },
    "scene" : 0,
    "scenes" : [
        {
            "name" : "Scene",
            "nodes" : [
                0
            ]
        }
    ],
    "nodes" : [
        {
            "mesh" : 0,
            "name" : "Shotgun"
        }
    ],
    "materials" : [
        {
            "doubleSided" : true,
            "name" : "mat_arcade",
            "pbrMetallicRoughness" : {}
        }
    ],
    "meshes" : [
        {
            "name" : "Cube.010",
            "primitives" : [
                {
                    "attributes" : {
                        "POSITION" : 0,
                        "TEXCOORD_0" : 1,
                        "NORMAL" : 2
                    },
                    "indices" : 3,
                    "material" : 0
                }
            ]
        }
    ],
    "accessors" : [
        {
            "bufferView" : 0,
            "componentType" : 5126,
            "count" : 635,
            "max" : [
                0.5036345720291138,
                0.35654884576797485,
                0.9519591331481934
            ],
            "min" : [
                0.31082823872566223,
                -0.23175659775733948,
                -0.4213806390762329
            ],
            "type" : "VEC3"
        },
        {
            "bufferView" : 1,
            "componentType" : 5126,
            "count" : 635,
            "type" : "VEC2"
        },
        {
            "bufferView" : 2,
            "componentType" : 5126,
            "count" : 635,
            "type" : "VEC3"
        },
        {
            "bufferView" : 3,
            "componentType" : 5123,
            "count" : 1404,
            "type" : "SCALAR"
        }
    ],
    "bufferViews" : [
        {
            "buffer" : 0,
            "byteLength" : 7620,
            "byteOffset" : 0,
            "target" : 34962
        },
        {
            "buffer" : 0,
            "byteLength" : 5080,
            "byteOffset" : 7620,
            "target" : 34962
        },
        {
            "buffer" : 0,
            "byteLength" : 7620,
            "byteOffset" : 12700,
            "target" : 34962
        },
        {
            "buffer" : 0,
            "byteLength" : 2808,
            "byteOffset" : 20320,
            "target" : 34963
        }
    ],
    "buffers" : [
        {
            "byteLength" : 23128,
            "uri" : "data:application/octet-stream;base64,"
        }
    ]
}
